<svg width="4664" height="1622" viewBox="0 0 4664 1622" fill="none" xmlns="http://www.w3.org/2000/svg">
<path d="M2087.04 711.669C2222 711.669 2305.37 644.201 2305.37 534.58C2305.37 432.92 2226.76 397.984 2105.31 371.81C2024.35 354.342 1998.12 343.231 1998.12 309.898C1998.12 282.922 2021.94 262.246 2065.57 262.246C2116.36 262.246 2170.36 281.318 2221.15 319.405L2289.4 222.556C2232.25 174.905 2159.99 148.731 2069.52 148.731C1944.87 148.731 1861.56 218.604 1861.56 322.612C1861.56 426.62 1948.08 463.161 2064.77 489.392C2143.39 508.464 2168.75 515.623 2168.75 548.154C2168.75 577.535 2142.53 597.409 2091.74 597.409C2025.03 597.409 1966.28 571.98 1913.09 528.337L1837.68 618.886C1902.9 680.684 1991.02 711.669 2087.04 711.669ZM2426.08 702.906H2561.04V532.977H2678.53C2797.63 532.977 2884.95 455.944 2884.95 346.381C2884.95 236.817 2798.43 159.785 2678.53 159.785H2426.08V702.906ZM2561.78 409.897V282.865H2665.76C2713.4 282.865 2745.13 308.294 2745.13 346.381C2745.13 384.467 2712.6 409.897 2665.76 409.897H2561.78ZM3382.65 702.906H3535.07L3319.95 159.785H3167.53L2953.21 702.906H3104.83L3135.81 624.27H3350.93L3382.65 702.906ZM3178.64 517.914L3244.54 351.134L3308.84 517.914H3178.64ZM3907.43 711.669C3992.41 711.669 4068.56 675.129 4123.36 617.97L4025.73 531.43C3996.36 567.169 3954.27 590.192 3907.43 590.192C3824.86 590.192 3754.21 517.112 3754.21 431.374C3754.21 345.636 3824.86 272.556 3907.43 272.556C3952.67 272.556 3996.36 295.579 4024.93 331.318L4124.16 243.175C4069.36 186.818 3993.15 150.278 3908.23 150.278C3749.45 150.278 3616.1 278.913 3616.1 431.374C3616.1 583.835 3749.45 711.669 3907.43 711.669ZM4664 280.459V159.785H4236.9V281.261H4664V280.459ZM4236.85 365.453V702.906H4663.94V581.43H4371V485.325H4636.17V365.453H4236.85Z" fill="#E6E6E6"/>
<path d="M2009.46 1294.48H2041.35L1956.78 1095.63H1924.14L1838.83 1294.48H1871.47L1889.27 1254.39H1992.4L2009.46 1294.48ZM1900.38 1226.96L1940.46 1132.68L1980.54 1226.96H1900.38ZM2091.8 1294.48H2121.46V1143.85L2235.69 1294.48H2265.35V1095.63H2235.69V1246.26L2121.46 1095.63H2091.8V1294.48ZM2332.17 1294.48H2400.43C2464.96 1294.48 2511 1252.9 2511 1195.05C2511 1137.21 2465.02 1095.63 2400.43 1095.63H2332.17V1294.48ZM2361.83 1267.73V1122.26H2402.66C2448.64 1122.26 2480.53 1152.67 2480.53 1195C2480.53 1237.32 2448.64 1267.73 2402.66 1267.73H2361.83Z" fill="#E6E6E6"/>
<path d="M2796.83 1466.53H2931.79V1045.69H3096.13V924.209H2632.5V1045.69H2796.83V1466.53ZM3217.58 1466.53H3352.54V924.209H3217.58V1466.53ZM3503.36 1466.53H3638.32V1152.1L3794.69 1434.8L3951.07 1152.1V1466.53H4086.03V924.209H3951.07L3794.69 1206.91L3638.32 924.209H3503.36V1466.53Z" fill="#E6E6E6"/>
<path d="M4235.98 1129.19V1466.64H4663.08V1346.71H4370.14V1250.61H4636.11V1129.13L4235.98 1129.19ZM4663.08 1045V923.522H4235.98V1045H4663.08Z" fill="#E6E6E6"/>
<path d="M1340.84 895.961C1303.32 895.961 1272.84 926.382 1272.84 963.967V1143.55L704.415 1475.42L135.986 1143.55V498.324C480.883 544.542 740.995 842.285 740.995 1190.94C740.995 1202.69 740.701 1214.61 740.114 1226.3C738.235 1263.82 767.124 1295.71 804.643 1297.53C805.817 1297.53 806.933 1297.59 808.048 1297.59C844.041 1297.59 874.045 1269.34 875.865 1232.99C876.57 1219.07 876.922 1204.92 876.922 1190.94C876.922 987.457 802.881 791.428 668.481 638.974C565.082 521.697 431.856 436.544 284.479 391.853L704.415 146.67L901.465 261.715C933.877 280.625 975.506 269.702 994.413 237.285C1013.32 204.867 1002.4 163.23 969.987 144.32L738.646 9.24943C717.509 -3.08314 691.321 -3.08314 670.125 9.24943L33.703 380.754C12.8588 392.91 0 415.285 0 439.48V1182.49C0 1206.68 12.8588 1229 33.703 1241.21L670.125 1612.72C680.694 1618.89 692.554 1622 704.356 1622C716.158 1622 728.019 1618.89 738.588 1612.72L1375.01 1241.21C1395.85 1229.06 1408.71 1206.68 1408.71 1182.49V963.908C1408.71 926.382 1378.3 895.903 1340.72 895.903L1340.84 895.961Z" fill="url(#paint0_radial_1288_2212)"/>
<path d="M1262.22 216.436C1095.88 216.436 960.536 351.801 960.536 518.173C960.536 684.546 1095.88 819.91 1262.22 819.91C1428.56 819.91 1563.9 684.546 1563.9 518.173C1563.9 351.801 1428.56 216.436 1262.22 216.436ZM1262.22 684.017C1170.8 684.017 1096.46 609.61 1096.46 518.232C1096.46 426.853 1170.86 352.447 1262.22 352.447C1353.58 352.447 1427.97 426.853 1427.97 518.232C1427.97 609.61 1353.58 684.017 1262.22 684.017Z" fill="url(#paint1_radial_1288_2212)"/>
<defs>
<radialGradient id="paint0_radial_1288_2212" cx="0" cy="0" r="1" gradientUnits="userSpaceOnUse" gradientTransform="translate(-180.653 1331.89) rotate(-31.4005) scale(2178.42 2261.8)">
<stop stop-color="#5000BF"/>
<stop offset="0.06" stop-color="#6900C2"/>
<stop offset="0.13" stop-color="#9700C7"/>
<stop offset="0.2" stop-color="#BC00CC"/>
<stop offset="0.27" stop-color="#D900D0"/>
<stop offset="0.35" stop-color="#EE00D2"/>
<stop offset="0.43" stop-color="#FA00D4"/>
<stop offset="0.5" stop-color="#FF00D5"/>
<stop offset="0.56" stop-color="#FB26E2"/>
<stop offset="0.65" stop-color="#F55DF7"/>
<stop offset="0.7" stop-color="#F373FF"/>
<stop offset="0.8" stop-color="#EABFFF"/>
<stop offset="0.9" stop-color="#99CCFF"/>
</radialGradient>
<radialGradient id="paint1_radial_1288_2212" cx="0" cy="0" r="1" gradientUnits="userSpaceOnUse" gradientTransform="translate(-180.653 1331.89) rotate(-31.4005) scale(2178.42 2261.8)">
<stop stop-color="#5000BF"/>
<stop offset="0.06" stop-color="#6900C2"/>
<stop offset="0.13" stop-color="#9700C7"/>
<stop offset="0.2" stop-color="#BC00CC"/>
<stop offset="0.27" stop-color="#D900D0"/>
<stop offset="0.35" stop-color="#EE00D2"/>
<stop offset="0.43" stop-color="#FA00D4"/>
<stop offset="0.5" stop-color="#FF00D5"/>
<stop offset="0.56" stop-color="#FB26E2"/>
<stop offset="0.65" stop-color="#F55DF7"/>
<stop offset="0.7" stop-color="#F373FF"/>
<stop offset="0.8" stop-color="#EABFFF"/>
<stop offset="0.9" stop-color="#99CCFF"/>
</radialGradient>
</defs>
</svg>
